# Haveli previz — venue geometry: stage + stairs, backstage, performance stage,
# LED screen, curtain wings, drape, cabin, cordon, chair, hall floor + back/front walls.
# Excludes: hall side walls, ceiling (not modelled), render helpers (grid/dims/figures).
# Units: metres. +X house right, +Y up, +Z toward audience.
# Origin: centre of the main stage front edge, at hall floor level.
# Source: data/venue.json — stair count "approx", some cabin/LED/curtain dims "est" (SPEC.md §10).

mtllib haveli-stage.mtl

v -22.5000 -0.0050 -7.5000
v 22.5000 -0.0050 -7.5000
v 22.5000 0.0050 -7.5000
v -22.5000 0.0050 -7.5000
v -22.5000 -0.0050 42.5000
v 22.5000 -0.0050 42.5000
v 22.5000 0.0050 42.5000
v -22.5000 0.0050 42.5000
v -22.5000 0.0000 -7.9000
v 22.5000 0.0000 -7.9000
v 22.5000 7.6000 -7.9000
v -22.5000 7.6000 -7.9000
v -22.5000 0.0000 -7.5000
v 22.5000 0.0000 -7.5000
v 22.5000 7.6000 -7.5000
v -22.5000 7.6000 -7.5000
v -22.5000 0.0000 42.5000
v 22.5000 0.0000 42.5000
v 22.5000 7.6000 42.5000
v -22.5000 7.6000 42.5000
v -22.5000 0.0000 42.9000
v 22.5000 0.0000 42.9000
v 22.5000 7.6000 42.9000
v -22.5000 7.6000 42.9000
v -13.1500 0.0000 -3.3952
v 13.1500 0.0000 -3.3952
v 13.1500 1.3000 -3.3952
v -13.1500 1.3000 -3.3952
v -13.1500 0.0000 -1.4500
v 13.1500 0.0000 -1.4500
v 13.1500 1.3000 -1.4500
v -13.1500 1.3000 -1.4500
v -11.2500 0.0000 -1.4500
v 11.2500 0.0000 -1.4500
v 11.2500 1.3000 -1.4500
v -11.2500 1.3000 -1.4500
v -11.2500 0.0000 0.0000
v 11.2500 0.0000 0.0000
v 11.2500 1.3000 0.0000
v -11.2500 1.3000 0.0000
v 11.2500 0.0000 -0.2900
v 13.1500 0.0000 -0.2900
v 13.1500 0.2600 -0.2900
v 11.2500 0.2600 -0.2900
v 11.2500 0.0000 0.0000
v 13.1500 0.0000 0.0000
v 13.1500 0.2600 0.0000
v 11.2500 0.2600 0.0000
v 11.2500 0.0000 -0.5800
v 13.1500 0.0000 -0.5800
v 13.1500 0.5200 -0.5800
v 11.2500 0.5200 -0.5800
v 11.2500 0.0000 -0.2900
v 13.1500 0.0000 -0.2900
v 13.1500 0.5200 -0.2900
v 11.2500 0.5200 -0.2900
v 11.2500 0.0000 -0.8700
v 13.1500 0.0000 -0.8700
v 13.1500 0.7800 -0.8700
v 11.2500 0.7800 -0.8700
v 11.2500 0.0000 -0.5800
v 13.1500 0.0000 -0.5800
v 13.1500 0.7800 -0.5800
v 11.2500 0.7800 -0.5800
v 11.2500 0.0000 -1.1600
v 13.1500 0.0000 -1.1600
v 13.1500 1.0400 -1.1600
v 11.2500 1.0400 -1.1600
v 11.2500 0.0000 -0.8700
v 13.1500 0.0000 -0.8700
v 13.1500 1.0400 -0.8700
v 11.2500 1.0400 -0.8700
v 11.2500 0.0000 -1.4500
v 13.1500 0.0000 -1.4500
v 13.1500 1.3000 -1.4500
v 11.2500 1.3000 -1.4500
v 11.2500 0.0000 -1.1600
v 13.1500 0.0000 -1.1600
v 13.1500 1.3000 -1.1600
v 11.2500 1.3000 -1.1600
v -13.1500 0.0000 -0.2900
v -11.2500 0.0000 -0.2900
v -11.2500 0.2600 -0.2900
v -13.1500 0.2600 -0.2900
v -13.1500 0.0000 0.0000
v -11.2500 0.0000 0.0000
v -11.2500 0.2600 0.0000
v -13.1500 0.2600 0.0000
v -13.1500 0.0000 -0.5800
v -11.2500 0.0000 -0.5800
v -11.2500 0.5200 -0.5800
v -13.1500 0.5200 -0.5800
v -13.1500 0.0000 -0.2900
v -11.2500 0.0000 -0.2900
v -11.2500 0.5200 -0.2900
v -13.1500 0.5200 -0.2900
v -13.1500 0.0000 -0.8700
v -11.2500 0.0000 -0.8700
v -11.2500 0.7800 -0.8700
v -13.1500 0.7800 -0.8700
v -13.1500 0.0000 -0.5800
v -11.2500 0.0000 -0.5800
v -11.2500 0.7800 -0.5800
v -13.1500 0.7800 -0.5800
v -13.1500 0.0000 -1.1600
v -11.2500 0.0000 -1.1600
v -11.2500 1.0400 -1.1600
v -13.1500 1.0400 -1.1600
v -13.1500 0.0000 -0.8700
v -11.2500 0.0000 -0.8700
v -11.2500 1.0400 -0.8700
v -13.1500 1.0400 -0.8700
v -13.1500 0.0000 -1.4500
v -11.2500 0.0000 -1.4500
v -11.2500 1.3000 -1.4500
v -13.1500 1.3000 -1.4500
v -13.1500 0.0000 -1.1600
v -11.2500 0.0000 -1.1600
v -11.2500 1.3000 -1.1600
v -13.1500 1.3000 -1.1600
v -22.1000 0.0000 -7.5000
v 22.1000 0.0000 -7.5000
v 22.1000 1.3000 -7.5000
v -22.1000 1.3000 -7.5000
v -22.1000 0.0000 -3.3952
v 22.1000 0.0000 -3.3952
v 22.1000 1.3000 -3.3952
v -22.1000 1.3000 -3.3952
v 13.1500 0.0000 -0.1000
v 22.1000 0.0000 -0.1000
v 22.1000 1.8290 -0.1000
v 13.1500 1.8290 -0.1000
v 13.1500 0.0000 0.0000
v 22.1000 0.0000 0.0000
v 22.1000 1.8290 0.0000
v 13.1500 1.8290 0.0000
v -22.1000 0.0000 -0.1000
v -13.1500 0.0000 -0.1000
v -13.1500 1.8290 -0.1000
v -22.1000 1.8290 -0.1000
v -22.1000 0.0000 0.0000
v -13.1500 0.0000 0.0000
v -13.1500 1.8290 0.0000
v -22.1000 1.8290 0.0000
v -12.8000 1.6050 -7.2050
v 12.8000 1.6050 -7.2050
v 12.8000 6.4050 -7.2050
v -12.8000 6.4050 -7.2050
v -12.8000 1.6050 -7.1950
v 12.8000 1.6050 -7.1950
v 12.8000 6.4050 -7.1950
v -12.8000 6.4050 -7.1950
v -12.8500 1.5550 -7.4500
v 12.8500 1.5550 -7.4500
v 12.8500 6.4550 -7.4500
v -12.8500 6.4550 -7.4500
v -12.8500 1.5550 -7.2100
v 12.8500 1.5550 -7.2100
v 12.8500 6.4550 -7.2100
v -12.8500 6.4550 -7.2100
v -22.0000 0.2000 -7.4200
v 22.0000 0.2000 -7.4200
v 22.0000 7.4000 -7.4200
v -22.0000 7.4000 -7.4200
v -22.0000 0.2000 -7.3400
v 22.0000 0.2000 -7.3400
v 22.0000 7.4000 -7.3400
v -22.0000 7.4000 -7.3400
v 12.0100 1.3000 -3.7350
v 22.2500 1.3000 -3.7350
v 22.2500 6.8000 -3.7350
v 12.0100 6.8000 -3.7350
v 12.0100 1.3000 -3.6650
v 22.2500 1.3000 -3.6650
v 22.2500 6.8000 -3.6650
v 12.0100 6.8000 -3.6650
v -22.2500 1.3000 -3.7350
v -12.0100 1.3000 -3.7350
v -12.0100 6.8000 -3.7350
v -22.2500 6.8000 -3.7350
v -22.2500 1.3000 -3.6650
v -12.0100 1.3000 -3.6650
v -12.0100 6.8000 -3.6650
v -22.2500 6.8000 -3.6650
v -3.7200 1.3000 -6.0500
v 3.7200 1.3000 -6.0500
v 3.7200 1.6600 -6.0500
v -3.7200 1.6600 -6.0500
v -3.7200 1.3000 -0.3048
v 3.7200 1.3000 -0.3048
v 3.7200 1.6600 -0.3048
v -3.7200 1.6600 -0.3048
v -3.7200 1.6600 -6.0500
v 3.7200 1.6600 -6.0500
v 3.7200 4.9650 -6.0500
v -3.7200 4.9650 -6.0500
v -3.7200 1.6600 -5.9300
v 3.7200 1.6600 -5.9300
v 3.7200 4.9650 -5.9300
v -3.7200 4.9650 -5.9300
v -3.7200 4.8450 -6.0500
v 3.7200 4.8450 -6.0500
v 3.7200 4.9650 -6.0500
v -3.7200 4.9650 -6.0500
v -3.7200 4.8450 -0.3048
v 3.7200 4.8450 -0.3048
v 3.7200 4.9650 -0.3048
v -3.7200 4.9650 -0.3048
v -3.6000 1.6600 -0.3098
v 3.6000 1.6600 -0.3098
v 3.6000 4.8450 -0.3098
v -3.6000 4.8450 -0.3098
v -3.6000 1.6600 -0.2998
v 3.6000 1.6600 -0.2998
v 3.6000 4.8450 -0.2998
v -3.6000 4.8450 -0.2998
v 3.6550 1.6600 -5.9900
v 3.6650 1.6600 -5.9900
v 3.6650 4.8450 -5.9900
v 3.6550 4.8450 -5.9900
v 3.6550 1.6600 -0.3648
v 3.6650 1.6600 -0.3648
v 3.6650 4.8450 -0.3648
v 3.6550 4.8450 -0.3648
v -3.6650 1.6600 -5.9900
v -3.6550 1.6600 -5.9900
v -3.6550 4.8450 -5.9900
v -3.6650 4.8450 -5.9900
v -3.6650 1.6600 -0.3648
v -3.6550 1.6600 -0.3648
v -3.6550 4.8450 -0.3648
v -3.6650 4.8450 -0.3648
v -0.3900 2.0200 -3.7128
v 0.3900 2.0200 -3.7128
v 0.3900 2.1800 -3.7128
v -0.3900 2.1800 -3.7128
v -0.3900 2.0200 -2.9928
v 0.3900 2.0200 -2.9928
v 0.3900 2.1800 -2.9928
v -0.3900 2.1800 -2.9928
v -0.3900 2.1800 -3.7228
v 0.3900 2.1800 -3.7228
v 0.3900 2.9000 -3.7228
v -0.3900 2.9000 -3.7228
v -0.3900 2.1800 -3.5828
v 0.3900 2.1800 -3.5828
v 0.3900 2.9000 -3.5828
v -0.3900 2.9000 -3.5828
v -0.3650 1.6600 -3.6778
v -0.2750 1.6600 -3.6778
v -0.2750 2.0200 -3.6778
v -0.3650 2.0200 -3.6778
v -0.3650 1.6600 -3.5878
v -0.2750 1.6600 -3.5878
v -0.2750 2.0200 -3.5878
v -0.3650 2.0200 -3.5878
v 0.2750 1.6600 -3.6778
v 0.3650 1.6600 -3.6778
v 0.3650 2.0200 -3.6778
v 0.2750 2.0200 -3.6778
v 0.2750 1.6600 -3.5878
v 0.3650 1.6600 -3.5878
v 0.3650 2.0200 -3.5878
v 0.2750 2.0200 -3.5878
v -0.3650 1.6600 -3.1178
v -0.2750 1.6600 -3.1178
v -0.2750 2.0200 -3.1178
v -0.3650 2.0200 -3.1178
v -0.3650 1.6600 -3.0278
v -0.2750 1.6600 -3.0278
v -0.2750 2.0200 -3.0278
v -0.3650 2.0200 -3.0278
v 0.2750 1.6600 -3.1178
v 0.3650 1.6600 -3.1178
v 0.3650 2.0200 -3.1178
v 0.2750 2.0200 -3.1178
v 0.2750 1.6600 -3.0278
v 0.3650 1.6600 -3.0278
v 0.3650 2.0200 -3.0278
v 0.2750 2.0200 -3.0278
v -0.5000 2.1300 -3.7028
v -0.3800 2.1300 -3.7028
v -0.3800 2.4300 -3.7028
v -0.5000 2.4300 -3.7028
v -0.5000 2.1300 -3.0428
v -0.3800 2.1300 -3.0428
v -0.3800 2.4300 -3.0428
v -0.5000 2.4300 -3.0428
v 0.3800 2.1300 -3.7028
v 0.5000 2.1300 -3.7028
v 0.5000 2.4300 -3.7028
v 0.3800 2.4300 -3.7028
v 0.3800 2.1300 -3.0428
v 0.5000 2.1300 -3.0428
v 0.5000 2.4300 -3.0428
v 0.3800 2.4300 -3.0428
v -4.8760 0.0000 0.0040
v -2.4440 0.0000 0.0040
v -2.4440 1.1000 0.0040
v -4.8760 1.1000 0.0040
v -4.8760 0.0000 1.2160
v -2.4440 0.0000 1.2160
v -2.4440 1.1000 1.2160
v -4.8760 1.1000 1.2160
v -4.8760 0.0000 1.2240
v -2.4440 0.0000 1.2240
v -2.4440 1.1000 1.2240
v -4.8760 1.1000 1.2240
v -4.8760 0.0000 2.4360
v -2.4440 0.0000 2.4360
v -2.4440 1.1000 2.4360
v -4.8760 1.1000 2.4360
v -4.8760 0.0000 2.4440
v -2.4440 0.0000 2.4440
v -2.4440 1.1000 2.4440
v -4.8760 1.1000 2.4440
v -4.8760 0.0000 3.6560
v -2.4440 0.0000 3.6560
v -2.4440 1.1000 3.6560
v -4.8760 1.1000 3.6560
v -4.8760 0.0000 3.6640
v -2.4440 0.0000 3.6640
v -2.4440 1.1000 3.6640
v -4.8760 1.1000 3.6640
v -4.8760 0.0000 4.8760
v -2.4440 0.0000 4.8760
v -2.4440 1.1000 4.8760
v -4.8760 1.1000 4.8760
v -2.4360 0.0000 0.0040
v -0.0040 0.0000 0.0040
v -0.0040 1.1000 0.0040
v -2.4360 1.1000 0.0040
v -2.4360 0.0000 1.2160
v -0.0040 0.0000 1.2160
v -0.0040 1.1000 1.2160
v -2.4360 1.1000 1.2160
v -2.4360 0.0000 1.2240
v -0.0040 0.0000 1.2240
v -0.0040 1.1000 1.2240
v -2.4360 1.1000 1.2240
v -2.4360 0.0000 2.4360
v -0.0040 0.0000 2.4360
v -0.0040 1.1000 2.4360
v -2.4360 1.1000 2.4360
v -2.4360 0.0000 2.4440
v -0.0040 0.0000 2.4440
v -0.0040 1.1000 2.4440
v -2.4360 1.1000 2.4440
v -2.4360 0.0000 3.6560
v -0.0040 0.0000 3.6560
v -0.0040 1.1000 3.6560
v -2.4360 1.1000 3.6560
v -2.4360 0.0000 3.6640
v -0.0040 0.0000 3.6640
v -0.0040 1.1000 3.6640
v -2.4360 1.1000 3.6640
v -2.4360 0.0000 4.8760
v -0.0040 0.0000 4.8760
v -0.0040 1.1000 4.8760
v -2.4360 1.1000 4.8760
v 0.0040 0.0000 0.0040
v 2.4360 0.0000 0.0040
v 2.4360 1.1000 0.0040
v 0.0040 1.1000 0.0040
v 0.0040 0.0000 1.2160
v 2.4360 0.0000 1.2160
v 2.4360 1.1000 1.2160
v 0.0040 1.1000 1.2160
v 0.0040 0.0000 1.2240
v 2.4360 0.0000 1.2240
v 2.4360 1.1000 1.2240
v 0.0040 1.1000 1.2240
v 0.0040 0.0000 2.4360
v 2.4360 0.0000 2.4360
v 2.4360 1.1000 2.4360
v 0.0040 1.1000 2.4360
v 0.0040 0.0000 2.4440
v 2.4360 0.0000 2.4440
v 2.4360 1.1000 2.4440
v 0.0040 1.1000 2.4440
v 0.0040 0.0000 3.6560
v 2.4360 0.0000 3.6560
v 2.4360 1.1000 3.6560
v 0.0040 1.1000 3.6560
v 0.0040 0.0000 3.6640
v 2.4360 0.0000 3.6640
v 2.4360 1.1000 3.6640
v 0.0040 1.1000 3.6640
v 0.0040 0.0000 4.8760
v 2.4360 0.0000 4.8760
v 2.4360 1.1000 4.8760
v 0.0040 1.1000 4.8760
v 2.4440 0.0000 0.0040
v 4.8760 0.0000 0.0040
v 4.8760 1.1000 0.0040
v 2.4440 1.1000 0.0040
v 2.4440 0.0000 1.2160
v 4.8760 0.0000 1.2160
v 4.8760 1.1000 1.2160
v 2.4440 1.1000 1.2160
v 2.4440 0.0000 1.2240
v 4.8760 0.0000 1.2240
v 4.8760 1.1000 1.2240
v 2.4440 1.1000 1.2240
v 2.4440 0.0000 2.4360
v 4.8760 0.0000 2.4360
v 4.8760 1.1000 2.4360
v 2.4440 1.1000 2.4360
v 2.4440 0.0000 2.4440
v 4.8760 0.0000 2.4440
v 4.8760 1.1000 2.4440
v 2.4440 1.1000 2.4440
v 2.4440 0.0000 3.6560
v 4.8760 0.0000 3.6560
v 4.8760 1.1000 3.6560
v 2.4440 1.1000 3.6560
v 2.4440 0.0000 3.6640
v 4.8760 0.0000 3.6640
v 4.8760 1.1000 3.6640
v 2.4440 1.1000 3.6640
v 2.4440 0.0000 4.8760
v 4.8760 0.0000 4.8760
v 4.8760 1.1000 4.8760
v 2.4440 1.1000 4.8760

vn 1 0 0
vn -1 0 0
vn 0 1 0
vn 0 -1 0
vn 0 0 1
vn 0 0 -1

o hall_floor
usemtl carpet
f 5//5 6//5 7//5
f 5//5 7//5 8//5
f 1//6 4//6 3//6
f 1//6 3//6 2//6
f 2//1 3//1 7//1
f 2//1 7//1 6//1
f 1//2 5//2 8//2
f 1//2 8//2 4//2
f 4//3 8//3 7//3
f 4//3 7//3 3//3
f 1//4 2//4 6//4
f 1//4 6//4 5//4

o hall_wall_back
usemtl wall
f 13//5 14//5 15//5
f 13//5 15//5 16//5
f 9//6 12//6 11//6
f 9//6 11//6 10//6
f 10//1 11//1 15//1
f 10//1 15//1 14//1
f 9//2 13//2 16//2
f 9//2 16//2 12//2
f 12//3 16//3 15//3
f 12//3 15//3 11//3
f 9//4 10//4 14//4
f 9//4 14//4 13//4

o hall_wall_front
usemtl wall
f 21//5 22//5 23//5
f 21//5 23//5 24//5
f 17//6 20//6 19//6
f 17//6 19//6 18//6
f 18//1 19//1 23//1
f 18//1 23//1 22//1
f 17//2 21//2 24//2
f 17//2 24//2 20//2
f 20//3 24//3 23//3
f 20//3 23//3 19//3
f 17//4 18//4 22//4
f 17//4 22//4 21//4

o main_stage_mid
usemtl deck
f 29//5 30//5 31//5
f 29//5 31//5 32//5
f 25//6 28//6 27//6
f 25//6 27//6 26//6
f 26//1 27//1 31//1
f 26//1 31//1 30//1
f 25//2 29//2 32//2
f 25//2 32//2 28//2
f 28//3 32//3 31//3
f 28//3 31//3 27//3
f 25//4 26//4 30//4
f 25//4 30//4 29//4

o main_stage_front
usemtl deck
f 37//5 38//5 39//5
f 37//5 39//5 40//5
f 33//6 36//6 35//6
f 33//6 35//6 34//6
f 34//1 35//1 39//1
f 34//1 39//1 38//1
f 33//2 37//2 40//2
f 33//2 40//2 36//2
f 36//3 40//3 39//3
f 36//3 39//3 35//3
f 33//4 34//4 38//4
f 33//4 38//4 37//4

o stair_R_1
usemtl deck
f 45//5 46//5 47//5
f 45//5 47//5 48//5
f 41//6 44//6 43//6
f 41//6 43//6 42//6
f 42//1 43//1 47//1
f 42//1 47//1 46//1
f 41//2 45//2 48//2
f 41//2 48//2 44//2
f 44//3 48//3 47//3
f 44//3 47//3 43//3
f 41//4 42//4 46//4
f 41//4 46//4 45//4

o stair_R_2
usemtl deck
f 53//5 54//5 55//5
f 53//5 55//5 56//5
f 49//6 52//6 51//6
f 49//6 51//6 50//6
f 50//1 51//1 55//1
f 50//1 55//1 54//1
f 49//2 53//2 56//2
f 49//2 56//2 52//2
f 52//3 56//3 55//3
f 52//3 55//3 51//3
f 49//4 50//4 54//4
f 49//4 54//4 53//4

o stair_R_3
usemtl deck
f 61//5 62//5 63//5
f 61//5 63//5 64//5
f 57//6 60//6 59//6
f 57//6 59//6 58//6
f 58//1 59//1 63//1
f 58//1 63//1 62//1
f 57//2 61//2 64//2
f 57//2 64//2 60//2
f 60//3 64//3 63//3
f 60//3 63//3 59//3
f 57//4 58//4 62//4
f 57//4 62//4 61//4

o stair_R_4
usemtl deck
f 69//5 70//5 71//5
f 69//5 71//5 72//5
f 65//6 68//6 67//6
f 65//6 67//6 66//6
f 66//1 67//1 71//1
f 66//1 71//1 70//1
f 65//2 69//2 72//2
f 65//2 72//2 68//2
f 68//3 72//3 71//3
f 68//3 71//3 67//3
f 65//4 66//4 70//4
f 65//4 70//4 69//4

o stair_R_5
usemtl deck
f 77//5 78//5 79//5
f 77//5 79//5 80//5
f 73//6 76//6 75//6
f 73//6 75//6 74//6
f 74//1 75//1 79//1
f 74//1 79//1 78//1
f 73//2 77//2 80//2
f 73//2 80//2 76//2
f 76//3 80//3 79//3
f 76//3 79//3 75//3
f 73//4 74//4 78//4
f 73//4 78//4 77//4

o stair_L_1
usemtl deck
f 85//5 86//5 87//5
f 85//5 87//5 88//5
f 81//6 84//6 83//6
f 81//6 83//6 82//6
f 82//1 83//1 87//1
f 82//1 87//1 86//1
f 81//2 85//2 88//2
f 81//2 88//2 84//2
f 84//3 88//3 87//3
f 84//3 87//3 83//3
f 81//4 82//4 86//4
f 81//4 86//4 85//4

o stair_L_2
usemtl deck
f 93//5 94//5 95//5
f 93//5 95//5 96//5
f 89//6 92//6 91//6
f 89//6 91//6 90//6
f 90//1 91//1 95//1
f 90//1 95//1 94//1
f 89//2 93//2 96//2
f 89//2 96//2 92//2
f 92//3 96//3 95//3
f 92//3 95//3 91//3
f 89//4 90//4 94//4
f 89//4 94//4 93//4

o stair_L_3
usemtl deck
f 101//5 102//5 103//5
f 101//5 103//5 104//5
f 97//6 100//6 99//6
f 97//6 99//6 98//6
f 98//1 99//1 103//1
f 98//1 103//1 102//1
f 97//2 101//2 104//2
f 97//2 104//2 100//2
f 100//3 104//3 103//3
f 100//3 103//3 99//3
f 97//4 98//4 102//4
f 97//4 102//4 101//4

o stair_L_4
usemtl deck
f 109//5 110//5 111//5
f 109//5 111//5 112//5
f 105//6 108//6 107//6
f 105//6 107//6 106//6
f 106//1 107//1 111//1
f 106//1 111//1 110//1
f 105//2 109//2 112//2
f 105//2 112//2 108//2
f 108//3 112//3 111//3
f 108//3 111//3 107//3
f 105//4 106//4 110//4
f 105//4 110//4 109//4

o stair_L_5
usemtl deck
f 117//5 118//5 119//5
f 117//5 119//5 120//5
f 113//6 116//6 115//6
f 113//6 115//6 114//6
f 114//1 115//1 119//1
f 114//1 119//1 118//1
f 113//2 117//2 120//2
f 113//2 120//2 116//2
f 116//3 120//3 119//3
f 116//3 119//3 115//3
f 113//4 114//4 118//4
f 113//4 118//4 117//4

o backstage
usemtl deck
f 125//5 126//5 127//5
f 125//5 127//5 128//5
f 121//6 124//6 123//6
f 121//6 123//6 122//6
f 122//1 123//1 127//1
f 122//1 127//1 126//1
f 121//2 125//2 128//2
f 121//2 128//2 124//2
f 124//3 128//3 127//3
f 124//3 127//3 123//3
f 121//4 122//4 126//4
f 121//4 126//4 125//4

o cordon_R
usemtl cordon
f 133//5 134//5 135//5
f 133//5 135//5 136//5
f 129//6 132//6 131//6
f 129//6 131//6 130//6
f 130//1 131//1 135//1
f 130//1 135//1 134//1
f 129//2 133//2 136//2
f 129//2 136//2 132//2
f 132//3 136//3 135//3
f 132//3 135//3 131//3
f 129//4 130//4 134//4
f 129//4 134//4 133//4

o cordon_L
usemtl cordon
f 141//5 142//5 143//5
f 141//5 143//5 144//5
f 137//6 140//6 139//6
f 137//6 139//6 138//6
f 138//1 139//1 143//1
f 138//1 143//1 142//1
f 137//2 141//2 144//2
f 137//2 144//2 140//2
f 140//3 144//3 143//3
f 140//3 143//3 139//3
f 137//4 138//4 142//4
f 137//4 142//4 141//4

o led_surface
usemtl led_surface
f 149//5 150//5 151//5
f 149//5 151//5 152//5
f 145//6 148//6 147//6
f 145//6 147//6 146//6
f 146//1 147//1 151//1
f 146//1 151//1 150//1
f 145//2 149//2 152//2
f 145//2 152//2 148//2
f 148//3 152//3 151//3
f 148//3 151//3 147//3
f 145//4 146//4 150//4
f 145//4 150//4 149//4

o led_carcass
usemtl led_body
f 157//5 158//5 159//5
f 157//5 159//5 160//5
f 153//6 156//6 155//6
f 153//6 155//6 154//6
f 154//1 155//1 159//1
f 154//1 159//1 158//1
f 153//2 157//2 160//2
f 153//2 160//2 156//2
f 156//3 160//3 159//3
f 156//3 159//3 155//3
f 153//4 154//4 158//4
f 153//4 158//4 157//4

o drape
usemtl drape
f 165//5 166//5 167//5
f 165//5 167//5 168//5
f 161//6 164//6 163//6
f 161//6 163//6 162//6
f 162//1 163//1 167//1
f 162//1 167//1 166//1
f 161//2 165//2 168//2
f 161//2 168//2 164//2
f 164//3 168//3 167//3
f 164//3 167//3 163//3
f 161//4 162//4 166//4
f 161//4 166//4 165//4

o curtain_wing_R
usemtl drape
f 173//5 174//5 175//5
f 173//5 175//5 176//5
f 169//6 172//6 171//6
f 169//6 171//6 170//6
f 170//1 171//1 175//1
f 170//1 175//1 174//1
f 169//2 173//2 176//2
f 169//2 176//2 172//2
f 172//3 176//3 175//3
f 172//3 175//3 171//3
f 169//4 170//4 174//4
f 169//4 174//4 173//4

o curtain_wing_L
usemtl drape
f 181//5 182//5 183//5
f 181//5 183//5 184//5
f 177//6 180//6 179//6
f 177//6 179//6 178//6
f 178//1 179//1 183//1
f 178//1 183//1 182//1
f 177//2 181//2 184//2
f 177//2 184//2 180//2
f 180//3 184//3 183//3
f 180//3 183//3 179//3
f 177//4 178//4 182//4
f 177//4 182//4 181//4

o cabin_plinth
usemtl deck
f 189//5 190//5 191//5
f 189//5 191//5 192//5
f 185//6 188//6 187//6
f 185//6 187//6 186//6
f 186//1 187//1 191//1
f 186//1 191//1 190//1
f 185//2 189//2 192//2
f 185//2 192//2 188//2
f 188//3 192//3 191//3
f 188//3 191//3 187//3
f 185//4 186//4 190//4
f 185//4 190//4 189//4

o cabin_back_wall
usemtl cabin
f 197//5 198//5 199//5
f 197//5 199//5 200//5
f 193//6 196//6 195//6
f 193//6 195//6 194//6
f 194//1 195//1 199//1
f 194//1 199//1 198//1
f 193//2 197//2 200//2
f 193//2 200//2 196//2
f 196//3 200//3 199//3
f 196//3 199//3 195//3
f 193//4 194//4 198//4
f 193//4 198//4 197//4

o cabin_roof
usemtl cabin
f 205//5 206//5 207//5
f 205//5 207//5 208//5
f 201//6 204//6 203//6
f 201//6 203//6 202//6
f 202//1 203//1 207//1
f 202//1 207//1 206//1
f 201//2 205//2 208//2
f 201//2 208//2 204//2
f 204//3 208//3 207//3
f 204//3 207//3 203//3
f 201//4 202//4 206//4
f 201//4 206//4 205//4

o cabin_glass_front
usemtl glass
f 213//5 214//5 215//5
f 213//5 215//5 216//5
f 209//6 212//6 211//6
f 209//6 211//6 210//6
f 210//1 211//1 215//1
f 210//1 215//1 214//1
f 209//2 213//2 216//2
f 209//2 216//2 212//2
f 212//3 216//3 215//3
f 212//3 215//3 211//3
f 209//4 210//4 214//4
f 209//4 214//4 213//4

o cabin_glass_R
usemtl glass
f 221//5 222//5 223//5
f 221//5 223//5 224//5
f 217//6 220//6 219//6
f 217//6 219//6 218//6
f 218//1 219//1 223//1
f 218//1 223//1 222//1
f 217//2 221//2 224//2
f 217//2 224//2 220//2
f 220//3 224//3 223//3
f 220//3 223//3 219//3
f 217//4 218//4 222//4
f 217//4 222//4 221//4

o cabin_glass_L
usemtl glass
f 229//5 230//5 231//5
f 229//5 231//5 232//5
f 225//6 228//6 227//6
f 225//6 227//6 226//6
f 226//1 227//1 231//1
f 226//1 231//1 230//1
f 225//2 229//2 232//2
f 225//2 232//2 228//2
f 228//3 232//3 231//3
f 228//3 231//3 227//3
f 225//4 226//4 230//4
f 225//4 230//4 229//4

o chair_seat
usemtl chair
f 237//5 238//5 239//5
f 237//5 239//5 240//5
f 233//6 236//6 235//6
f 233//6 235//6 234//6
f 234//1 235//1 239//1
f 234//1 239//1 238//1
f 233//2 237//2 240//2
f 233//2 240//2 236//2
f 236//3 240//3 239//3
f 236//3 239//3 235//3
f 233//4 234//4 238//4
f 233//4 238//4 237//4

o chair_back
usemtl chair
f 245//5 246//5 247//5
f 245//5 247//5 248//5
f 241//6 244//6 243//6
f 241//6 243//6 242//6
f 242//1 243//1 247//1
f 242//1 247//1 246//1
f 241//2 245//2 248//2
f 241//2 248//2 244//2
f 244//3 248//3 247//3
f 244//3 247//3 243//3
f 241//4 242//4 246//4
f 241//4 246//4 245//4

o chair_leg_1
usemtl chair
f 253//5 254//5 255//5
f 253//5 255//5 256//5
f 249//6 252//6 251//6
f 249//6 251//6 250//6
f 250//1 251//1 255//1
f 250//1 255//1 254//1
f 249//2 253//2 256//2
f 249//2 256//2 252//2
f 252//3 256//3 255//3
f 252//3 255//3 251//3
f 249//4 250//4 254//4
f 249//4 254//4 253//4

o chair_leg_2
usemtl chair
f 261//5 262//5 263//5
f 261//5 263//5 264//5
f 257//6 260//6 259//6
f 257//6 259//6 258//6
f 258//1 259//1 263//1
f 258//1 263//1 262//1
f 257//2 261//2 264//2
f 257//2 264//2 260//2
f 260//3 264//3 263//3
f 260//3 263//3 259//3
f 257//4 258//4 262//4
f 257//4 262//4 261//4

o chair_leg_3
usemtl chair
f 269//5 270//5 271//5
f 269//5 271//5 272//5
f 265//6 268//6 267//6
f 265//6 267//6 266//6
f 266//1 267//1 271//1
f 266//1 271//1 270//1
f 265//2 269//2 272//2
f 265//2 272//2 268//2
f 268//3 272//3 271//3
f 268//3 271//3 267//3
f 265//4 266//4 270//4
f 265//4 270//4 269//4

o chair_leg_4
usemtl chair
f 277//5 278//5 279//5
f 277//5 279//5 280//5
f 273//6 276//6 275//6
f 273//6 275//6 274//6
f 274//1 275//1 279//1
f 274//1 279//1 278//1
f 273//2 277//2 280//2
f 273//2 280//2 276//2
f 276//3 280//3 279//3
f 276//3 279//3 275//3
f 273//4 274//4 278//4
f 273//4 278//4 277//4

o chair_arm_1
usemtl chair
f 285//5 286//5 287//5
f 285//5 287//5 288//5
f 281//6 284//6 283//6
f 281//6 283//6 282//6
f 282//1 283//1 287//1
f 282//1 287//1 286//1
f 281//2 285//2 288//2
f 281//2 288//2 284//2
f 284//3 288//3 287//3
f 284//3 287//3 283//3
f 281//4 282//4 286//4
f 281//4 286//4 285//4

o chair_arm_2
usemtl chair
f 293//5 294//5 295//5
f 293//5 295//5 296//5
f 289//6 292//6 291//6
f 289//6 291//6 290//6
f 290//1 291//1 295//1
f 290//1 295//1 294//1
f 289//2 293//2 296//2
f 289//2 296//2 292//2
f 292//3 296//3 295//3
f 292//3 295//3 291//3
f 289//4 290//4 294//4
f 289//4 294//4 293//4

o forestage_c0_r0
usemtl deck
f 301//5 302//5 303//5
f 301//5 303//5 304//5
f 297//6 300//6 299//6
f 297//6 299//6 298//6
f 298//1 299//1 303//1
f 298//1 303//1 302//1
f 297//2 301//2 304//2
f 297//2 304//2 300//2
f 300//3 304//3 303//3
f 300//3 303//3 299//3
f 297//4 298//4 302//4
f 297//4 302//4 301//4

o forestage_c0_r1
usemtl deck
f 309//5 310//5 311//5
f 309//5 311//5 312//5
f 305//6 308//6 307//6
f 305//6 307//6 306//6
f 306//1 307//1 311//1
f 306//1 311//1 310//1
f 305//2 309//2 312//2
f 305//2 312//2 308//2
f 308//3 312//3 311//3
f 308//3 311//3 307//3
f 305//4 306//4 310//4
f 305//4 310//4 309//4

o forestage_c0_r2
usemtl deck
f 317//5 318//5 319//5
f 317//5 319//5 320//5
f 313//6 316//6 315//6
f 313//6 315//6 314//6
f 314//1 315//1 319//1
f 314//1 319//1 318//1
f 313//2 317//2 320//2
f 313//2 320//2 316//2
f 316//3 320//3 319//3
f 316//3 319//3 315//3
f 313//4 314//4 318//4
f 313//4 318//4 317//4

o forestage_c0_r3
usemtl deck
f 325//5 326//5 327//5
f 325//5 327//5 328//5
f 321//6 324//6 323//6
f 321//6 323//6 322//6
f 322//1 323//1 327//1
f 322//1 327//1 326//1
f 321//2 325//2 328//2
f 321//2 328//2 324//2
f 324//3 328//3 327//3
f 324//3 327//3 323//3
f 321//4 322//4 326//4
f 321//4 326//4 325//4

o forestage_c1_r0
usemtl deck
f 333//5 334//5 335//5
f 333//5 335//5 336//5
f 329//6 332//6 331//6
f 329//6 331//6 330//6
f 330//1 331//1 335//1
f 330//1 335//1 334//1
f 329//2 333//2 336//2
f 329//2 336//2 332//2
f 332//3 336//3 335//3
f 332//3 335//3 331//3
f 329//4 330//4 334//4
f 329//4 334//4 333//4

o forestage_c1_r1
usemtl deck
f 341//5 342//5 343//5
f 341//5 343//5 344//5
f 337//6 340//6 339//6
f 337//6 339//6 338//6
f 338//1 339//1 343//1
f 338//1 343//1 342//1
f 337//2 341//2 344//2
f 337//2 344//2 340//2
f 340//3 344//3 343//3
f 340//3 343//3 339//3
f 337//4 338//4 342//4
f 337//4 342//4 341//4

o forestage_c1_r2
usemtl deck
f 349//5 350//5 351//5
f 349//5 351//5 352//5
f 345//6 348//6 347//6
f 345//6 347//6 346//6
f 346//1 347//1 351//1
f 346//1 351//1 350//1
f 345//2 349//2 352//2
f 345//2 352//2 348//2
f 348//3 352//3 351//3
f 348//3 351//3 347//3
f 345//4 346//4 350//4
f 345//4 350//4 349//4

o forestage_c1_r3
usemtl deck
f 357//5 358//5 359//5
f 357//5 359//5 360//5
f 353//6 356//6 355//6
f 353//6 355//6 354//6
f 354//1 355//1 359//1
f 354//1 359//1 358//1
f 353//2 357//2 360//2
f 353//2 360//2 356//2
f 356//3 360//3 359//3
f 356//3 359//3 355//3
f 353//4 354//4 358//4
f 353//4 358//4 357//4

o forestage_c2_r0
usemtl deck
f 365//5 366//5 367//5
f 365//5 367//5 368//5
f 361//6 364//6 363//6
f 361//6 363//6 362//6
f 362//1 363//1 367//1
f 362//1 367//1 366//1
f 361//2 365//2 368//2
f 361//2 368//2 364//2
f 364//3 368//3 367//3
f 364//3 367//3 363//3
f 361//4 362//4 366//4
f 361//4 366//4 365//4

o forestage_c2_r1
usemtl deck
f 373//5 374//5 375//5
f 373//5 375//5 376//5
f 369//6 372//6 371//6
f 369//6 371//6 370//6
f 370//1 371//1 375//1
f 370//1 375//1 374//1
f 369//2 373//2 376//2
f 369//2 376//2 372//2
f 372//3 376//3 375//3
f 372//3 375//3 371//3
f 369//4 370//4 374//4
f 369//4 374//4 373//4

o forestage_c2_r2
usemtl deck
f 381//5 382//5 383//5
f 381//5 383//5 384//5
f 377//6 380//6 379//6
f 377//6 379//6 378//6
f 378//1 379//1 383//1
f 378//1 383//1 382//1
f 377//2 381//2 384//2
f 377//2 384//2 380//2
f 380//3 384//3 383//3
f 380//3 383//3 379//3
f 377//4 378//4 382//4
f 377//4 382//4 381//4

o forestage_c2_r3
usemtl deck
f 389//5 390//5 391//5
f 389//5 391//5 392//5
f 385//6 388//6 387//6
f 385//6 387//6 386//6
f 386//1 387//1 391//1
f 386//1 391//1 390//1
f 385//2 389//2 392//2
f 385//2 392//2 388//2
f 388//3 392//3 391//3
f 388//3 391//3 387//3
f 385//4 386//4 390//4
f 385//4 390//4 389//4

o forestage_c3_r0
usemtl deck
f 397//5 398//5 399//5
f 397//5 399//5 400//5
f 393//6 396//6 395//6
f 393//6 395//6 394//6
f 394//1 395//1 399//1
f 394//1 399//1 398//1
f 393//2 397//2 400//2
f 393//2 400//2 396//2
f 396//3 400//3 399//3
f 396//3 399//3 395//3
f 393//4 394//4 398//4
f 393//4 398//4 397//4

o forestage_c3_r1
usemtl deck
f 405//5 406//5 407//5
f 405//5 407//5 408//5
f 401//6 404//6 403//6
f 401//6 403//6 402//6
f 402//1 403//1 407//1
f 402//1 407//1 406//1
f 401//2 405//2 408//2
f 401//2 408//2 404//2
f 404//3 408//3 407//3
f 404//3 407//3 403//3
f 401//4 402//4 406//4
f 401//4 406//4 405//4

o forestage_c3_r2
usemtl deck
f 413//5 414//5 415//5
f 413//5 415//5 416//5
f 409//6 412//6 411//6
f 409//6 411//6 410//6
f 410//1 411//1 415//1
f 410//1 415//1 414//1
f 409//2 413//2 416//2
f 409//2 416//2 412//2
f 412//3 416//3 415//3
f 412//3 415//3 411//3
f 409//4 410//4 414//4
f 409//4 414//4 413//4

o forestage_c3_r3
usemtl deck
f 421//5 422//5 423//5
f 421//5 423//5 424//5
f 417//6 420//6 419//6
f 417//6 419//6 418//6
f 418//1 419//1 423//1
f 418//1 423//1 422//1
f 417//2 421//2 424//2
f 417//2 424//2 420//2
f 420//3 424//3 423//3
f 420//3 423//3 419//3
f 417//4 418//4 422//4
f 417//4 422//4 421//4

